8_ID_stride3.mot
nRows=6
nColumns=38

name 8_ID_stride3.mot
datacolumns 38
datarows 6
range 1.4800000000 1.5050000000
endheader
time	pelvis_tilt_moment	pelvis_list_moment	pelvis_rotation_moment	pelvis_tx_force	pelvis_ty_force	pelvis_tz_force	hip_flexion_r_moment	hip_adduction_r_moment	hip_rotation_r_moment	knee_angle_r_moment	ankle_angle_r_moment	subtalar_angle_r_moment	mtp_angle_r_moment	hip_flexion_l_moment	hip_adduction_l_moment	hip_rotation_l_moment	knee_angle_l_moment	ankle_angle_l_moment	subtalar_angle_l_moment	mtp_angle_l_moment	lumbar_extension_moment	lumbar_bending_moment	lumbar_rotation_moment	arm_flex_r_moment	arm_add_r_moment	arm_rot_r_moment	elbow_flex_r_moment	pro_sup_r_moment	wrist_flex_r_moment	wrist_dev_r_moment	arm_flex_l_moment	arm_add_l_moment	arm_rot_l_moment	elbow_flex_l_moment	pro_sup_l_moment	wrist_flex_l_moment	wrist_dev_l_moment
        1.4800000000	       -0.1589063821	       -7.7550379052	       -9.3971059816	       76.5627463922	      -79.4858454734	      -47.2740121182	        0.7330430579	      -52.2414706832	       26.7821167383	        1.9215289146	     -188.6376211980	       43.0991597880	       -0.0485322275	       -6.2937857378	        4.2404397614	       -4.2582686120	       -1.8984517925	        2.1793688220	       -0.0421831681	        0.1262103195	       14.0659409790	       13.0944851287	      -50.7965127848	       -1.5577722036	       -4.2477361754	       -5.0106932524	        4.0909166213	       -0.2494832498	       -0.4736690260	       -0.4613635236	        8.6165603744	        7.5454833136	        5.6175253877	        4.6725913340	        0.0798487483	        0.6884923031	       -0.2549156202	
        1.4850000000	       -4.4580231025	      -11.6381938452	      -16.9986378580	       62.4264842534	      -81.0682884589	      -45.9399950371	        2.1518028012	      -40.0350343294	       19.2688552727	       -3.0403282486	     -173.3763529860	       38.8057102935	       -0.0540638588	       -7.7137140882	        3.7607798643	       -3.6386543533	       -1.8926062549	        2.2616183846	       -0.1094885006	        0.1282044582	        7.9885404105	       11.5489830552	      -50.5480481317	       -1.7236622541	       -4.2646342967	       -4.9979150103	        3.5544761542	       -0.2376423350	       -0.4788657849	       -0.4139250504	        8.4886442056	        7.0518188071	        5.3829960999	        4.2080053561	        0.0834535699	        0.6562019821	       -0.2178088242	
        1.4900000000	       -7.8518973478	      -18.4871893916	      -22.5026553073	       46.7978706579	      -70.4233363370	      -36.0574574596	        1.0569003523	      -29.7978056660	       13.4639300245	       -8.8030853378	     -156.7535654843	       34.6693960487	       -0.0579231326	       -9.7479537121	        3.1479703576	       -2.6970454546	       -2.4675715608	        2.3475341196	       -0.1943190892	        0.1317190360	        2.9782471222	       10.6139632078	      -48.3631229953	       -1.9300591427	       -3.9792572830	       -4.6919464172	        2.9936286704	       -0.2197669764	       -0.4621035664	       -0.3599254648	        8.0201123362	        6.3328707217	        4.9756499815	        3.7267274355	        0.0839451232	        0.6081679962	       -0.1824589171	
        1.4950000000	       -8.0944978265	      -26.9325028456	      -24.2097804377	       33.9901711867	      -54.9623762843	      -15.8688954388	       -2.9658816425	      -23.5739869477	       10.6342203208	      -15.8021560837	     -139.2569826928	       30.7516010397	       -0.0590240089	      -12.3004164545	        2.7563339387	       -1.6706805921	       -3.3346682865	        2.4318149945	       -0.2833691887	        0.1362613503	       -0.2750229892	       10.5311741142	      -45.2207671530	       -2.2643009742	       -3.5121138775	       -4.2296499067	        2.3937016169	       -0.1963956434	       -0.4285434137	       -0.2991191105	        7.2505186261	        5.4237220261	        4.4509927031	        3.2118608557	        0.0815138774	        0.5480099891	       -0.1469116903	
        1.5000000000	       -6.4016513212	      -31.5316333270	      -22.6832341203	       24.6945139681	      -44.3618253898	       10.9224814698	       -7.0772175696	      -20.7482616760	       10.6858107332	      -22.9767574234	     -122.2001949583	       26.8894118781	       -0.0565893344	      -15.1514234070	        2.8318789990	       -0.6862275900	       -4.3112756369	        2.5120556240	       -0.3660728511	        0.1414904008	       -0.9138355215	       11.0427718541	      -41.2438044990	       -2.7390483588	       -2.8929527449	       -3.6268768074	        1.7473384140	       -0.1680333802	       -0.3816175490	       -0.2317404460	        6.1880222802	        4.3551937322	        3.8322911514	        2.6515242407	        0.0775347819	        0.4779963282	       -0.1098438323	
        1.5050000000	       -3.7240151318	      -29.3154993208	      -19.5557681791	       17.6233435675	      -46.3784938122	       37.8914355880	       -6.9899365781	      -18.2168956224	       10.6428680706	      -28.4706084004	     -106.0081095008	       22.9983935198	       -0.0491718152	      -18.0230733156	        3.2335290081	        0.1765279322	       -5.1767129538	        2.5854095054	       -0.4346043186	        0.1468780031	       -0.2980865945	       12.1216898323	      -36.6412291468	       -3.3280940852	       -2.1649042954	       -2.9207602835	        1.0561354336	       -0.1356365833	       -0.3248777043	       -0.1588502209	        4.8898650910	        3.1715634909	        3.1464906329	        2.0421095737	        0.0726982446	        0.4006326388	       -0.0706109471	
